<?xml version="1.0" encoding="UTF-8"?>
<!-- Generator: Adobe Illustrator 27.0.1, SVG Export Plug-In . SVG Version: 6.00 Build 0)  -->
<svg xmlns="http://www.w3.org/2000/svg" xmlns:xlink="http://www.w3.org/1999/xlink" version="1.1" id="_레이어_1" x="0px" y="0px" viewBox="0 0 872 203" style="enable-background:new 0 0 872 203;" xml:space="preserve">
<style type="text/css">
	.st0{fill:#1C1C1B;}
</style>
<g>
	<g>
		<path class="st0" d="M489.4,131.1c-2.7,1.5-5.2,3.1-7.5,5s-4.3,3.8-6,5.8c-2.1,2.4-3.7,4.8-5,7.3c-1.2,2.5-2,4.7-2.2,6.5    s0.1,3.1,1.1,3.7c1,0.7,2.8,0.3,5.3-1c2.2-1.2,4.2-2.4,6-3.7s3.5-2.7,5.1-4.2c1.7-1.6,3.3-3.2,4.7-4.9c1.4-1.7,2.7-3.4,3.8-5.2    c0.4-0.9,0.9-1.8,1.3-2.7s0.7-2,0.9-3.1c-1.4-0.3-2.7-0.7-4-1.2C491.8,132.9,490.6,132.1,489.4,131.1L489.4,131.1z M491.8,138.8    c-1,1.6-2.1,3.1-3.4,4.7c-1.3,1.6-2.8,3.1-4.4,4.6l-0.1,0.1c-1.5,1.4-3.1,2.8-4.8,4c-1.7,1.2-3.5,2.4-5.5,3.5    c-0.7,0.4-1.2,0.6-1.6,0.7c0,0,0,0,0-0.1c0.2-1.4,0.8-3.3,1.9-5.4c1.1-2.2,2.6-4.4,4.5-6.6c1.6-1.8,3.5-3.7,5.6-5.4    c1.6-1.3,3.3-2.5,5.1-3.6c0.8,0.6,1.7,1,2.6,1.4c0.4,0.1,0.7,0.3,1.1,0.4C492.4,137.6,492.1,138.2,491.8,138.8L491.8,138.8z"></path>
		<path class="st0" d="M303.6,133.3c-0.9-0.2-1.8-0.4-2.7-0.7c-0.9-0.3-1.8-0.8-2.7-1.3c-0.7-0.5-1.6-0.5-2.4,0    c-2.2,1.5-4.2,3.1-6.1,4.9c-2.2,2.1-4.1,4.2-5.7,6.3c-2,2.5-3.5,5.1-4.6,7.8c-1.1,2.6-1.7,4.9-1.8,6.8s0.4,3.1,1.4,3.7    c1,0.6,2.8,0.2,5.4-1.4c2.1-1.4,4.1-2.8,5.8-4.2c1.7-1.4,3.4-3,4.9-4.7c1.6-1.7,3.1-3.5,4.5-5.3s2.5-3.7,3.5-5.6    c0.4-0.9,0.8-1.9,1.2-2.8c0.2-0.5,0.4-1.1,0.5-1.6C305,134.3,304.4,133.5,303.6,133.3L303.6,133.3z M300.5,137.2    c-0.1,0.3-0.3,0.6-0.5,0.9c-0.9,1.7-1.9,3.4-3.1,5c-1.3,1.7-2.7,3.4-4.2,4.9l-0.1,0.1c-1.5,1.6-3,3-4.6,4.4    c-1.6,1.3-3.5,2.7-5.4,3.9c-0.7,0.4-1.2,0.7-1.6,0.8c0,0,0,0,0-0.1c0.1-1.5,0.6-3.4,1.5-5.7c1-2.3,2.4-4.7,4.1-7    c1.5-2,3.3-4,5.3-5.9c1.3-1.2,2.7-2.4,4.2-3.5c0.5-0.3,1.1-0.4,1.6-0.1c0.6,0.3,1.2,0.6,1.9,0.8c0.1,0.1,0.3,0.1,0.5,0.1    C300.4,136,300.9,136.3,300.5,137.2L300.5,137.2z"></path>
		<path class="st0" d="M412.1,142.2c0.1,0,0.2,0,0.3,0c1.6-0.4,3.3-0.8,4.9-1.3c1.7-0.6,3.4-1.2,5.1-1.9c1.6-0.7,3.1-1.4,4.5-2.3    c1.1-0.7,2.3-1.5,3.1-2.5c0.6-0.7,1.1-1.6,0.9-2.5c0-0.2-0.1-0.3-0.2-0.5c-0.1-0.1-0.4-0.2-0.6-0.2c-0.3-0.1-0.6,0-0.9,0    c-0.8,0.1-1.7,0.4-2.5,0.6c-1,0.4-2.1,0.8-3.1,1.3c-1.1,0.5-2.2,1.1-3.3,1.7c-1.1,0.6-2.2,1.3-3.3,1.9c-1,0.6-1.9,1.3-2.8,1.9    c-0.7,0.5-1.4,1.1-2,1.7c-0.3,0.4-0.8,0.8-0.9,1.3C411.4,142,411.8,142.2,412.1,142.2L412.1,142.2z"></path>
	</g>
	<path class="st0" d="M682.4,129.2c-0.5-0.8-1.5-1.7-3.2-2.2c-2.9-0.7-5.9,0.9-7.9,2.9c-1.4,1.4-2.5,2.3-3.8,3.8   c-2.1,2.2-4.5,4.7-7.2,7.3c-1,1-4,4-5.1,5c0.6-0.9,1.8-2.4,2.5-3.3c0.7-1,2.9-3.5,3.8-4.7c1.3-1.7,2-3.4,2.2-5.1v-0.1   c0.1-1.7-0.2-4.9-4-7.3c-0.4-0.3-0.9-0.5-1.3-0.7c1.8-0.2,3.3-0.9,4.6-1.8c3.2-2.1,5.5-7.5,2.7-10.8c-1.8-2.1-5.5-3.2-6.5-3.4   c-2.3-0.5-5.3-0.8-7.6-0.8c-3.2,0-11.6,0.4-20.4,3.7c-6.9,2.6-13.8,7.2-20.4,12.1c-5.8,4.4-12.8,12-17.2,17.2   c-0.9,1.1-1.7,2-2.4,2.8c-3.1,3.7-3.7,4.5-5.9,6.5c-1.3,1.2-3,2.5-4.7,3.1c2.5-2.7,5.6-6,6.6-7.1c1.9-2.1,3.6-4.2,5.3-6.7   c1-1.5,1.8-3.1,2.6-4.8c0.8-1.8,1.3-3.7,1.4-5.5c0.1-2.2-0.3-4.3-1.3-6.1c-2.9-5.1-8.6-8-15.7-8c-5.9,0-12.3,1.9-19.2,5.7   c-0.8,0.4-1.5,0.9-2.1,1.3c-0.8-0.9-1.8-1.7-3-2.3c-1.5-0.8-3.3-1.4-5.2-1.7c-1-0.2-2-0.2-3-0.2c-0.9,0-1.7,0.1-2.6,0.2   c-2.6,0.3-7.3,2.3-7.3,2.3c-2,0.7-6.6,1.3-15,1.3c-3.2,0-5.8-1.1-9.2-2.5c-4.9-2-10.9-4.5-20.7-4.5c-1.6,0-3.1,0.2-4.4,0.3   c-1.5,0.2-2.7,0.4-3.8,0.7c-8.6,2-17,6-23.1,12.5c-1.3,1.4-2.6,2.9-3.8,4.4c-0.2,0.3-2.4,2.9-4.1,4.8c-0.1,0.1-0.1,0.1-0.1,0   c0-0.2,0.1-0.4,0.2-0.5c0.3-0.7,0.6-1.3,0.8-2c0.1-0.5,0.2-0.9,0.2-1.4c0.1-0.9,0.2-1.8,0.2-2.6s-0.1-1.6-0.2-2.4   c-0.1-0.8-0.3-1.5-0.6-2.2c-0.3-0.7-0.6-1.4-1-2s-0.8-1.2-1.3-1.8c-0.5-0.6-1-1.1-1.5-1.6c-0.6-0.5-1.2-1-1.8-1.4   c-0.6-0.4-1.3-0.8-2-1.2c-0.7-0.4-1.5-0.7-2.2-1c-0.8-0.3-1.6-0.6-2.4-0.8c-0.8-0.2-1.6-0.5-2.5-0.7s-1.7-0.4-2.6-0.5   s-1.7-0.2-2.6-0.3s-1.8-0.1-2.6-0.2c-0.9,0-1.8,0-2.6,0c-0.9,0-1.7,0.1-2.6,0.1c-0.8,0.1-1.7,0.2-2.5,0.3c-0.8,0.1-1.6,0.3-2.4,0.4   c-0.8,0.2-1.5,0.3-2.3,0.6c-0.7,0.2-1.3,0.4-2,0.6c-10.7,3.6-18.1,8.7-23.5,14.5l0,0c-0.8,0.9-1.5,1.8-2.3,2.7   c-1.9,2.2-3.8,4.4-5.4,6.8c-0.9,1.3-1.6,2.7-2.5,4.1c-0.5,0.9-0.9,1.8-1.5,2.6c-0.4,0.5-2,1-2,1c-0.6-2.9-0.9-4.5-3.4-6.6   c22.7-6.6,13.8-30.8-9.3-27.8c-17.7,2.1-32.4,13.4-49.2,4.5c-20.7-11.1-50.8,2.9-61.5,25.9c-0.6,1.2-2.7,2.8-4.5,3.7   c-0.2,0.1-2.2,1.3-1.4-0.1c4.5-7.2,15.6-18.4,4.6-23.3c10.1-0.3,12.7-11.9,3.2-15.5c-8.9-3.3-20-0.4-28.4,2.7   c-18.5,5.6-64.8,42.3-37.2,58.4c-23.8,12.2-8.2,32,14.1,24.1c10.7-3.8,17.1-8.6,24.1-15.7c7.3-7.1,16.6-11.1,25.2-17.5   c20,27.1,63.1,6.9,71-21.8c0.1-0.4,0.2-1.3,1.7-1.3c1.1,0,1,0.9,1,1.2c0.4,10.2,14.9,13.7,23.7,13.3c0.6,0,0.7,0.8,0.1,1.2   c-3.7,2.6-9.6,1.4-13.8-1.2c-2.7-1.7-5.6-3-8.9-3c-3.6,0-8,2.9-10.2,5.7c-1.5,1.9-2.7,4-2.3,6.3c1.3,6.6,9.3,10.9,21.6,12.7   c2.4,0.3,5.6,0.5,7.9,0.5c16.4,0,31.1-8.2,35.4-10.9c0,0,0.2-0.1,0.3-0.2c3.7,4.4,9.8,6.8,9.8,6.8c18.2,8,40.9,0.6,55.5-9.7   c3.8,6,9.4,9.9,15.6,11.7c2,0.5,4,0.9,6.2,1.1c1.3,0.1,2.5,0.2,3.8,0.2c3.5,0,7.2-0.5,10.8-1.6c3.9-1.1,7.6-2.9,11-5   c3.6-2.2,6.6-5.2,9.8-7.9c-0.1,0.1,0,2.2,0,2.4c0.1,4.4,2.7,8.7,6.7,10.6c1.3,0.6,2.8,1.1,4.3,1.4c1.6,0.3,4.6,0.3,5,0.3   c0.5,0,1.3,0,1.8-0.1c1.6-0.1,3.3-0.4,4.7-0.9c2.8-1.2,5.4-3.9,6.2-6.8c0.1-0.3,0.5-1.6,0.5-1.6c5-13.2,14.2-19.8,22-22.9   c-1.8,2.4-3.8,5.1-5.5,7.9c-0.9,1.5-2,3.4-2.7,5.8c-0.6,2-0.7,4.2-0.4,6.6c0.9,6.3,4.8,10.9,11,12.8c2.4,0.7,4.9,1.1,7.7,1.1   c0.5,0,1,0,1.5,0c11.3-0.5,18.4-5.7,21.7-8.8c0.8,0.8,1.8,1.5,3,2.3c0.7,0.4,1.4,0.8,2.1,1c-0.3,0.2-0.7,0.4-1,0.5   c-3.4,1.8-6.1,4-8.1,6.4c-2.4,2.9-3.3,6.4-2.4,9.8c0.6,2.5,2,4.5,4.2,5.8c1.8,1.1,3.9,1.8,6.3,2.1c1.3,0.2,2.6,0.3,3.9,0.3   c1,0,2.1-0.1,3.2-0.2c0.1,0,13.5-1.4,23.4-8.9c3.1-2.3,6-5,8.6-7.8c1.6-1.7,3.4-3.2,5.5-4.4c2.9-1.7,5.8-3.5,8.8-5.5   c4.3-2.9,8.6-6.1,12.7-9.6c4.1-3.5,8-7.3,11.8-11.4c3.8-4.1,7.2-8.6,10.2-13.3C683.4,132.7,683.4,130.8,682.4,129.2L682.4,129.2z    M678.8,133.6c-2.9,4.6-5.5,7.8-9.1,11.8c-3.7,4-7.5,7.7-11.5,11.1c-4,3.4-8.1,6.5-12.4,9.4c-2.9,1.9-5.8,3.7-8.6,5.4   c-2.3,1.4-4.5,3-6.3,5c-2.4,2.6-5.1,5.1-8.1,7.4c-8.1,6.2-19.4,8-21.6,8.2c-2.2,0.2-4.3,0.2-6.3-0.1s-3.6-0.8-5-1.7   s-2.3-2.1-2.7-3.6c-0.6-2.4,0-4.7,1.7-6.8c1.8-2.1,4.1-4,7.1-5.6s6.3-2.9,10-3.9c3-0.8,5.8-1.4,8.5-1.7c1.3-0.1,2.5-0.9,3.2-2   c1.4-2.3,3.8-6.3,5.7-9.4c0.3-0.5-0.4-1-0.8-0.6c-2.6,2.7-6.1,6.3-9.5,8.5c-1.8,1.2-3.8,2-5.8,2.5s-4.1,0.8-6.2,0.7   c-2.1-0.1-4.1-0.5-5.9-1.6c-2.2-1.3-3.2-2.6-4-3.6c-0.3-0.5-1-0.6-1.5-0.3c0,0-6.7,9.2-21.2,9.9c-2.5,0.1-5.2-0.1-8-0.9   c-2.7-0.9-7.7-3.2-8.6-10c-0.2-1.7-0.2-3.4,0.3-5.1c0.5-1.8,1.3-3.4,2.3-4.9c3.9-6.4,9.2-12.2,10.3-13.4c1-1,0.5-2.2-0.3-2   c-0.9,0.2-23.9,4.8-32.5,27.5c-0.4,1-0.6,2.1-1,3.2c-0.6,1.3-2.5,2.7-3.9,3.3c-1,0.4-2.4,0.6-3.6,0.7c-1.2,0.1-4.7,0-6-0.2   s-3.1-0.9-4.1-1.4c-2.3-1-3.7-2.3-4.4-4.8c-0.3-1.2-0.5-2.6-0.5-3.9c0.1-3.1,2-6,3.8-8.4c1.5-2,2.8-3.7,3.8-5   c1.4-1.7,2.6-3.2,4.3-5c1.6-1.7,1.8-2,2.6-2.9c0.8-1,1.1-2.5-0.1-2.6c-0.4,0-0.6-0.1-3.1-0.1c-1.6,0-2.1,0.4-2.9,2.2   c-0.7,1.7-1.7,3.4-2.7,5c-1.5,2.5-3.3,5-4.9,7.1c-1.3,1.8-2.9,3.6-4.6,5.4s-3.7,3.5-5.7,5.1s-4.4,3.1-6.8,4.5   c-2.5,1.4-5.1,2.6-7.9,3.4c-4.5,1.3-9,1.7-13.3,1.2c-1.1-0.1-2.7-0.2-4-0.5c-1.4-0.3-2.5-0.6-2.5-0.6c-6.2-2.1-11.7-6.3-13.7-12.5   c-0.2-0.7-1.1-0.8-1.6-0.4c-10.7,8.5-24.7,14.2-38.5,14.2c-1.6,0-3.2-0.1-4.9-0.3c-1.5-0.2-2.9-0.4-4.4-0.7   c-1.3-0.3-2.6-0.6-3.9-1.1c-1.1-0.4-2.3-0.8-3.4-1.4c-1-0.4-1.9-1-2.9-1.5c-0.8-0.5-1.6-1-2.4-1.6c-0.6-0.5-1.3-1-1.8-1.5   c-0.5-0.4-0.9-0.9-1.3-1.4c-0.3-0.3-0.5-0.7-0.7-1c-0.4-0.6-0.9-0.4-1.4-0.1c-0.3,0.2-0.7,0.5-1,0.7c0,0-21.3,13.6-42.2,10.5   c-6.3-0.9-10.3-2-13.3-3.9s-5.2-3.7-5.6-6.5c-0.4-3,4.8-6.5,7.2-7.5c2.2-0.9,4-0.6,6.1,0.5c0.7,0.4,2,1,2.7,1.4   c-0.7-0.4,6,4.3,14.8,2.2c4.2-1,5.7-3.7,5.5-6c-0.1-1.9-3.1-1.5-7.8-1.5c-7.3-0.1-17.7-3.1-17.5-11.2c0-1.4-1.2-3-2.9-2.9   c-8.7,0.1-3.2,2.1-12.5,15.2c-15,19.7-47.2,29.6-59.5,6.3c-0.2-0.6-0.9-0.8-1.4-0.5c-2.7,1.8-19.6,12.7-20.4,13.2   c-12,7.4-13.3,15.2-31.1,21.2c-15.3,5.1-31.6-6.1-11.8-17.5c16-7.8,19.3,0.5,29.1-17.3c0.3-0.7-0.5-1.4-1.2-0.6   c-4,4.2-10.8,10.1-16.9,11.5c-12.3,3.3-22.9-5-12.4-21.3c6.4-9.1,19.3-21.8,32.2-28c14.8-7.2,24.2-8.6,32.2-6.4   c5.4,1.4,5.5,7.1,1.6,9.3c-4.9,2.8-9.5-0.7-21.5,5.8c-7.4,4.2-13.2,9.1-19,15.2c-3.1,2.5-13.5,16.3-3.9,9.6   c6.3-4.4,19.9-19.2,26-22.6c1.9-1.1,8.7-5.8,15.1-1.4c2.1,1.3,2.9,4.7,0.2,8.8c-4.4,6.9-8.6,12.8-12.9,19.6c-0.5,0.8,0.5,1.4,1.2,1   c16.7-9.8,15-9.2,16.3-11.5c7-15.2,23.8-26.6,41-27.4c16.6,0,15.2,6.9,32.5,6.9c11.4,0.3,22.4-6.9,34.5-7.7   c25.1-1.9,22.2,19.6,6.5,22.1c-1.4,0.2-3-0.3-4-1.5c-2.1-3.9,3.6-6,2.6-8c-0.1-0.2-0.4-0.6-1.2-0.7c-5.3-0.4-20.9,5.1-22.9,9.8   c-0.2,0.4-0.2,1.3,0.8,1.6c2.8,0.7,6.8-0.3,9.5-0.3c28.2-0.6,10.6,20.7,25.4,9.3c0.3-0.2,0.9-1,1.3-1.7   c3.6-8.2,12.7-17.5,16.3-19.9c12.6-9.4,34.1-15.6,46.9-3.7c5.8,6.8,3,15.8-8.5,22.7c-10.8,6.4-26.1,7.3-33.9,4.9   c-0.1-0.1-0.5-0.1-0.7,0.2c-0.7,4.1,10.1,4.8,17.1,3.7c10.9-1.4,21-6.1,29.4-13.1c3-2.5,5.6-5.3,8.2-8.3c3-3.4,6-6.5,9.7-9.1   c4.7-3.2,9.8-5.1,15.3-6.4c0.9-0.2,2.1-0.4,3.4-0.6s2.7-0.3,4-0.3c16,0,21,7,29.9,7c2,0,8.2-0.2,10.6-0.5c1.9-0.3,4.2-0.4,5.9-1.3   c1.2-0.7,4.8-1.6,6.3-1.8s3-0.2,4.6,0.1s2.9,0.7,4.1,1.3c1.2,0.7,2.1,1.5,2.7,2.5c0.3,0.6,0.5,1.2,0.5,1.9c0.4-0.3,2.2-1.5,4.2-2.8   c0.2-0.1,0.4-0.2,0.6-0.4c1.1-0.7,2.2-1.3,3.2-1.7c14-6.8,24-3.9,27.5,2.3c0.8,1.3,1,2.8,0.9,4.2s-0.5,2.9-1.1,4.3   c-2.4,5.2-6.3,9.9-10.1,14.1c-2.1,2.4-4.2,4.7-6.2,7.1c-0.8,1-1,1.5-1,2.1c0,3.2,5.6,1.1,10.5-2.6c5.1-3.9,4.9-4.8,10.6-11.2   c4.1-4.6,11.3-12.3,17-16.6c6.8-5.1,14-10.1,22.1-12.8c6.7-2.2,15.4-4.2,22.4-2.5c0.8,0.2,1.7,0.4,2.5,0.8c1.3,0.5,3.3,2.1,3.5,3.6   c0.2,1.6-0.7,3.2-1.9,4.1c-1.5,1.2-3.4,2.1-5.2,2.3c-9,0.8-17.3,4.2-24.5,9.6c-2.3,1.7-4.2,3.3-5.9,4.8c-1.8,1.7-3.7,3.6-5.7,5.7   s-8.8,9.5-7.5,11.2c0.4,0.5,1.1,0.7,3.9-1.4c2.1-1.6,11.7-10.3,15.8-14.3c1.5-1.5,3-2.9,4.6-4.4s3.2-2.9,5.1-4.1   c2.8-1.7,5.8-2.8,9-3.1c2.3-0.2,5,0.4,7,1.8c1.6,1.1,2.5,2.9,2.4,4.8c-0.1,1.3-0.9,2.4-1.5,3.4c-0.8,1.3-1.6,2.5-2.3,3.5   c-1.2,1.7-2.4,3.5-3.6,5.2s-2.2,3.4-3.3,5.1l-4.5,6.7c-0.3,0.4,0.2,0.9,0.7,0.7c2.7-1.6,5.2-3.4,7.9-5.6c3.3-2.7,6.3-5.4,9-8.1   c2.8-2.7,5.3-5.2,7.4-7.4c2.1-2.2,3.2-3.2,4.1-4c1.2-1.2,3.3-2.5,4.9-1.3C679.9,131.5,679.3,132.8,678.8,133.6L678.8,133.6z    M366.5,138c-3.1-0.6-11.6,0.2-12-0.2c-0.1-0.1-0.1-0.2,0-0.4c6-3.4,11.3-4.6,12.8-4.8c0.1,0,0.1,0.1,0.1,0.1   C365.5,135.5,366.4,137.8,366.5,138L366.5,138z"></path>
</g>
<g>
	<path class="st0" d="M126.6,91.6h40.8V36.3c0-10.5-2.7-18.7-8.1-24.4c-5.3-5.7-12.8-8.5-22.1-8.5c-6.2,0-11.9,1.2-16.9,3.6   s-10.1,6.3-15.1,11.6l-1.4,1.5l-1.1-1.8c-6-10-15.2-14.9-27.9-14.9C64.2,3.4,55.2,7.3,48.1,15l-2.7,2.9V9.2C24,11.8,2,9.3,2,9.3   v82.3h43.3V31.2l0.7-0.5c3.2-2.2,6.3-3.4,9.4-3.4c3.1,0,5.6,1.1,7.5,3.3c1.8,2.1,2.7,4.9,2.7,8.5v52.5h40.8V31l0.7-0.5   c3.1-2.1,6.2-3.2,9.4-3.2c3,0,5.5,1.1,7.4,3.2c1.8,2.1,2.8,5,2.8,8.5L126.6,91.6L126.6,91.6z"></path>
	<path class="st0" d="M212.7,77.1c-3.2,0-5.9-1-8-2.9c-2.2-2-3.3-4.4-3.3-7.3c0-2.8,1.1-5.2,3.1-6.9c3.5-3,9.1-3.4,15.9-1l1.1,0.4   v14.5l-0.6,0.5C218.7,76.2,215.9,77.1,212.7,77.1 M204,45.4c-8.8,0-16,2.3-21.4,7c-5.4,4.6-8,10.5-8,17.8c0,6.4,2.1,11.6,6.4,15.8   c4.4,4.2,9.6,6.3,16.2,6.3c7.9,0,15.1-2.4,21.7-7.2l2.5-1.8v8.3h43.4V43.1c0-13.4-3.6-23.5-10.8-29.9c-7.2-6.5-18.6-9.8-34-9.7   c-15.9,0-30.5,3.4-43.1,10.1v23.7c8.3-4.1,16.6-6.2,24.6-6.2c6.1,0,10.9,1.3,14.4,3.8c3.6,2.7,5.5,6.4,5.5,11.1v2l-2-0.5   C214.4,46.1,209.2,45.4,204,45.4"></path>
	<path class="st0" d="M337.7,91.5h40.8V36.8c0-11.1-2.7-19.5-8-25.1c-5.3-5.5-13.1-8.4-23.2-8.4c-10.4,0-19.5,3.9-26.9,11.6   l-2.7,2.8V9.1c0,0-22.8,2.7-43.4,0.1v82.3h43.4V31.1l0.7-0.5c3.1-2.1,6.2-3.2,9.2-3.2c4.6,0,10.1,2.2,10.1,12.9   C337.7,40.2,337.7,91.5,337.7,91.5z"></path>
	<path class="st0" d="M435.5,56c-3.5,0-6.3-1.1-8.5-3.2c-2.1-2.1-3.2-5-3.2-8.5c0-5.9,3-12.9,17.1-12.9h2.6v21.9l-0.6,0.5   C441,55.2,438.5,56,435.5,56 M387.9,109.4c13.8,8.2,31.3,12.4,52.1,12.4c16.1,0,28-3.5,35.6-10.4c7.5-6.8,11.3-17.9,11.3-32.9V9.1   h-50.6c-10.9,0-18.7,0.4-23.2,1.2c-4.4,0.8-8.5,2.3-12.1,4.4c-3.5,2.1-6.7,5.5-9.4,10.2c-2.7,4.7-4,10.4-4,16.9   c0,9.9,3.2,18,9.5,23.8c6.3,5.9,15,8.9,25.8,8.9c7.2,0,13.4-1.6,18.3-4.7l2-1.2l0.4,2.3c0.2,0.9,0.2,1.8,0.2,2.7   c0,8.7-6.9,13.2-20.4,13.2c-12.9,0-24.8-4.8-35.5-14.1L387.9,109.4L387.9,109.4z"></path>
	<path class="st0" d="M496.5,91.4h43.3V59.2c0-11.1,2.5-18.8,7.5-23l1.1-1l1,1.1c5,5.2,10.7,7.8,17.7,7.8c6,0,10.8-1.8,14.5-5.7   c3.7-3.8,5.5-8.7,5.5-15c0-5.9-1.8-10.7-5.7-14.5c-3.8-3.8-8.5-5.7-14.4-5.7c-10.7,0-18.6,6.4-24.3,19.7l-3,7V9.1   c-24.5,2.6-43.4,0-43.4,0L496.5,91.4z"></path>
	<path class="st0" d="M633.5,58.5c-3.4,0-6.3-1.1-8.5-3.3s-3.3-5.1-3.3-8.5c0-3.5,1.1-6.4,3.3-8.6s5-3.4,8.5-3.4s6.4,1.1,8.6,3.3   c2.2,2.2,3.3,5.1,3.3,8.6c0,3.5-1.1,6.4-3.3,8.6C639.9,57.4,637,58.5,633.5,58.5 M633.5,2.1c-14.1,0-25.8,4.3-34.6,12.7   s-13.3,19.4-13.3,32.8s4.5,24.4,13.5,32.7s20.5,12.6,34.4,12.5c14.2,0,25.9-4.2,34.8-12.6c8.8-8.3,13.3-19.3,13.3-32.6   c0-13.4-4.5-24.4-13.3-32.8C659.4,6.3,647.7,2.1,633.5,2.1"></path>
	<polygon class="st0" points="712.8,91.3 745.1,91.3 781,9 738,9 729.1,29.4 720,9 677,9  "></polygon>
	<path class="st0" d="M844.8,39.2h-25.1v-1.6c0-5.1,1.2-9,3.5-11.8c2.4-2.8,5.3-4.2,8.6-4.2c3.7,0,6.8,1.5,9.2,4.4   c2.2,2.8,3.5,6.6,3.7,11.5L844.8,39.2L844.8,39.2z M822.7,2c-13.5,0-24.7,4.2-33.2,12.4c-8.4,8.2-12.7,19-12.7,32.1   c0,13.8,4.7,25,13.9,33.4s21.7,12.7,36.9,12.7c18.3,0,32.5-6.4,42.3-19c0,0-4-2.6-8.4-6.7c-4.5,1.8-9.6,2.8-15.2,2.8   c-5.5,0-10.4-1.4-14.6-4.2c-4.3-2.8-7.4-6.7-9.2-11.6l-0.8-2.1h48.1c-0.1-8-1.2-14.9-3.1-20.5c-2-5.9-5.2-11.2-9.5-15.7   s-9.4-7.9-15.3-10.2C836.2,3.2,829.6,2,822.7,2"></path>
</g>
</svg>
