<?xml version="1.0" encoding="UTF-8"?>
<svg xmlns="http://www.w3.org/2000/svg" id="_레이어_1" viewBox="0 0 872 244">
  <defs>
    <style>.cls-1{fill:#1c1c1b;}</style>
  </defs>
  <g>
    <path class="cls-1" d="m126.59,91.32h40.79v-55.31c0-10.47-2.72-18.66-8.08-24.35-5.33-5.66-12.77-8.53-22.1-8.53-6.25,0-11.93,1.22-16.88,3.61-5,2.41-10.07,6.3-15.08,11.55l-1.42,1.49-1.06-1.76c-6.07-10.02-15.2-14.89-27.92-14.89-10.58,0-19.58,3.9-26.75,11.61l-2.73,2.93v-8.71c-21.37,2.53-43.35.06-43.35.06v82.31h43.35V30.91l.66-.47c3.16-2.24,6.33-3.37,9.41-3.37s5.64,1.1,7.48,3.27c1.77,2.08,2.67,4.93,2.67,8.46v52.52h40.79V30.75l.67-.47c3.06-2.13,6.23-3.22,9.4-3.22s5.5,1.08,7.39,3.2c1.84,2.08,2.77,4.95,2.77,8.53v52.52Z"></path>
    <path class="cls-1" d="m212.65,76.93c-3.19,0-5.89-.98-8.01-2.89-2.17-1.96-3.26-4.42-3.26-7.34s1.05-5.15,3.1-6.91c3.52-2.99,9.05-3.37,15.9-1.04l1.07.36v14.49l-.56.47c-2.24,1.9-5.01,2.86-8.24,2.86m-8.65-31.75c-8.8,0-16,2.34-21.4,6.95-5.39,4.62-8.02,10.44-8.02,17.8,0,6.44,2.11,11.62,6.45,15.84,4.35,4.23,9.65,6.29,16.21,6.29,7.85,0,15.16-2.44,21.72-7.23l2.5-1.83v8.3h43.34v-48.54c0-13.41-3.62-23.47-10.77-29.9-7.18-6.48-18.63-9.76-34-9.76s-30.46,3.41-43.11,10.12v23.71c.76-.37,1.51-.73,2.27-1.07,7.56-3.41,15.06-5.14,22.33-5.14,6.08,0,10.93,1.29,14.43,3.84,3.65,2.66,5.51,6.4,5.51,11.12v2.06l-1.99-.54c-5.01-1.36-10.21-2.05-15.46-2.05"></path>
    <path class="cls-1" d="m337.72,91.32h40.8v-54.71c0-11.1-2.7-19.56-8.03-25.13-5.3-5.54-13.11-8.36-23.2-8.36s-19.45,3.91-26.93,11.64l-2.7,2.79v-8.6s-22.81,2.68-43.35.06v82.31h43.35V30.9l.67-.47c3.06-2.13,6.17-3.21,9.25-3.21,4.63,0,10.15,2.23,10.15,12.86v51.24Z"></path>
    <path class="cls-1" d="m435.46,55.89c-3.48,0-6.33-1.08-8.48-3.2-2.15-2.12-3.25-5-3.25-8.53,0-5.9,2.97-12.93,17.14-12.93h2.64v21.88l-.59.47c-1.88,1.54-4.39,2.31-7.46,2.31m-47.55,53.37c13.77,8.23,31.27,12.39,52.07,12.39,16.07,0,28.05-3.49,35.62-10.38,7.52-6.85,11.34-17.92,11.34-32.88V8.95h-50.64c-10.89,0-18.7.41-23.2,1.22-4.4.79-8.47,2.27-12.07,4.42-3.53,2.11-6.68,5.55-9.37,10.22-2.68,4.67-4.04,10.37-4.04,16.94,0,9.93,3.19,17.95,9.47,23.83,6.31,5.91,14.98,8.9,25.75,8.9,7.24,0,13.38-1.56,18.27-4.64l1.99-1.25.4,2.31c.17.93.25,1.84.25,2.68,0,8.73-6.86,13.16-20.38,13.16-7.88,0-15.39-1.78-22.48-5.32-3.59-1.79-7.08-4.03-10.45-6.72-.85-.67-1.68-1.38-2.51-2.11v36.67Z"></path>
    <path class="cls-1" d="m496.43,91.32h43.34v-32.21c0-11.07,2.52-18.82,7.48-23.02l1.14-.96,1.02,1.09c4.96,5.24,10.73,7.78,17.67,7.78,6.03,0,10.76-1.85,14.48-5.66,3.73-3.81,5.53-8.71,5.53-14.96s-1.84-10.7-5.64-14.54c-3.79-3.84-8.49-5.71-14.37-5.71-10.65,0-18.59,6.43-24.29,19.66l-3.02,7.01V8.95c-24.46,2.54-43.34,0-43.34,0v82.37Z"></path>
    <path class="cls-1" d="m633.52,58.43c-3.44,0-6.28-1.12-8.46-3.34-2.17-2.19-3.28-5.07-3.28-8.54s1.1-6.36,3.27-8.59c2.18-2.24,5.03-3.37,8.46-3.37s6.36,1.12,8.56,3.32c2.21,2.21,3.32,5.11,3.32,8.63s-1.12,6.36-3.32,8.56c-2.2,2.21-5.07,3.32-8.56,3.32m0-56.43c-14.12,0-25.75,4.26-34.58,12.66-8.81,8.37-13.28,19.41-13.28,32.78s4.53,24.36,13.45,32.67c8.96,8.33,20.53,12.55,34.4,12.55s25.91-4.23,34.76-12.59c8.83-8.33,13.32-19.3,13.32-32.64s-4.48-24.4-13.32-32.78c-8.86-8.4-20.55-12.66-34.76-12.66"></path>
    <polygon class="cls-1" points="712.8 91.32 745.12 91.32 781.03 8.95 737.97 8.95 729.08 29.38 720.05 8.95 676.98 8.95 712.8 91.32"></polygon>
    <path class="cls-1" d="m844.86,39.16h-25.11v-1.58c0-5.08,1.19-9.04,3.55-11.74,2.41-2.79,5.31-4.19,8.63-4.19,3.74,0,6.83,1.47,9.17,4.38,2.23,2.79,3.48,6.65,3.7,11.48l.07,1.64Zm-22.11-37.16c-13.55,0-24.71,4.18-33.17,12.42-8.44,8.23-12.73,19.03-12.73,32.12,0,13.77,4.66,25.01,13.85,33.41,9.23,8.44,21.65,12.71,36.93,12.71,18.3,0,32.55-6.39,42.36-18.98,0,0-3.97-2.62-8.4-6.68-4.49,1.84-9.56,2.77-15.15,2.77s-10.38-1.4-14.62-4.17c-4.29-2.78-7.39-6.69-9.2-11.61l-.78-2.12h48.15c-.12-7.99-1.15-14.87-3.06-20.48-2.03-5.94-5.23-11.21-9.5-15.67-4.29-4.48-9.44-7.92-15.32-10.23-5.9-2.32-12.42-3.51-19.36-3.51"></path>
  </g>
  <g>
    <path class="cls-1" d="m189.92,170.56c4.35,0,8.36.7,12.03,2.11,3.67,1.4,6.82,3.36,9.47,5.87,2.64,2.51,4.7,5.5,6.18,8.97,1.48,3.47,2.22,7.26,2.22,11.37s-.73,7.84-2.2,11.28c-1.46,3.44-3.51,6.42-6.14,8.92-2.63,2.51-5.78,4.46-9.45,5.87-3.67,1.4-7.71,2.11-12.12,2.11-5.56,0-10.63-1.16-15.22-3.49-4.53-2.32-8.09-5.62-10.69-9.88-2.57-4.29-3.85-9.22-3.85-14.81s1.25-10.4,3.76-14.72c2.54-4.32,6.05-7.66,10.55-10.01,4.5-2.38,9.65-3.58,15.45-3.58Zm0,33.97c1.9,0,3.41-.56,4.53-1.68,1.12-1.12,1.68-2.63,1.68-4.53s-.56-3.42-1.7-4.55c-1.13-1.13-2.65-1.7-4.55-1.7-.91,0-1.73.15-2.47.45-.74.3-1.38.73-1.9,1.29-.53.56-.94,1.22-1.25,1.99-.3.77-.45,1.61-.45,2.51,0,1.84.57,3.34,1.7,4.48,1.13,1.15,2.6,1.72,4.42,1.72Z"></path>
    <path class="cls-1" d="m448.16,170.47c-9.59,0-18.31,2.05-25.91,6.08v14.25c.43-.21.86-.42,1.29-.61,4.57-2.07,9.1-3.12,13.5-3.12,3.65,0,6.57.77,8.67,2.31,2.19,1.6,3.31,3.85,3.31,6.68v1.24l-1.19-.33c-3.01-.82-6.14-1.23-9.29-1.23-5.29,0-9.62,1.4-12.86,4.18-3.24,2.78-4.82,6.28-4.82,10.7,0,3.87,1.27,6.98,3.87,9.52,2.62,2.54,5.8,3.78,9.74,3.78,4.72,0,9.11-1.46,13.05-4.34l1.5-1.1v4.99h26.05v-29.17c0-8.06-2.17-14.1-6.47-17.97-4.32-3.89-11.19-5.86-20.43-5.86Zm.86,42.36l-.34.28c-1.34,1.14-3.01,1.72-4.95,1.72s-3.54-.59-4.82-1.74c-1.3-1.18-1.96-2.66-1.96-4.41s.63-3.1,1.87-4.15c2.11-1.8,5.44-2.03,9.56-.63l.64.22v8.71Z"></path>
    <path class="cls-1" d="m535.38,200.82h.02c0-.22-.02-.41-.03-.63l-.02-1.07h-.03c-.18-4.13-.76-7.76-1.79-10.76-1.23-3.61-3.18-6.82-5.78-9.53-2.61-2.72-5.74-4.82-9.32-6.22-3.59-1.41-7.55-2.13-11.78-2.13-8.25,0-15.03,2.54-20.18,7.56-5.14,5-7.74,11.58-7.74,19.54,0,8.38,2.84,15.21,8.43,20.33,5.62,5.13,13.17,7.73,22.47,7.73,11.13,0,19.8-3.89,25.77-11.54,0,0-2.42-1.59-5.11-4.06-2.73,1.12-5.82,1.68-9.22,1.68s-6.31-.85-8.9-2.54c-2.61-1.69-4.49-4.07-5.6-7.06l28.82-.11-.02-1.18Zm-30.55-8.7c0-3.09.73-5.5,2.16-7.14,1.46-1.69,3.23-2.55,5.25-2.55,2.28,0,4.16.9,5.58,2.67,1.36,1.69,2.12,4.04,2.25,6.99l.04,1h-15.28v-.96Z"></path>
    <path class="cls-1" d="m267.63,170.47c-6.25,0-11.69,2.35-16.19,6.99l-1.62,1.68v-5.17s-13.71,1.61-26.05.04v49.46h26.05v-36.31l.41-.28c1.84-1.28,3.71-1.93,5.56-1.93,2.78,0,6.1,1.34,6.1,7.73v30.8h24.52v-32.88c0-6.67-1.62-11.75-4.83-15.1-3.19-3.33-7.88-5.02-13.94-5.02Z"></path>
    <path class="cls-1" d="m756.89,170.54c-6.25,0-11.69,2.35-16.19,6.99l-1.62,1.68v-5.17s-13.71,1.61-26.05.04v49.46h26.05v-36.31l.41-.28c1.84-1.28,3.71-1.93,5.56-1.93,2.78,0,6.1,1.34,6.1,7.73v30.8h24.52v-32.88c0-6.67-1.62-11.75-4.83-15.1-3.19-3.33-7.88-5.02-13.94-5.02Z"></path>
    <path class="cls-1" d="m319.88,173.97c-6.55,0-11.24.25-13.94.74-2.64.47-5.09,1.36-7.26,2.66-2.12,1.27-4.02,3.33-5.63,6.14-1.61,2.81-2.43,6.23-2.43,10.18,0,5.97,1.92,10.79,5.69,14.32,3.79,3.55,9,5.35,15.47,5.35,4.35,0,8.04-.94,10.98-2.79l1.19-.75.24,1.39c.1.56.15,1.11.15,1.61,0,5.25-4.12,7.91-12.25,7.91-4.73,0-9.25-1.07-13.51-3.2-2.16-1.08-4.25-2.42-6.28-4.04-.51-.41-1.01-.83-1.51-1.27v22.04c8.27,4.94,18.8,7.45,31.29,7.45,9.66,0,16.86-2.1,21.4-6.24,4.52-4.12,6.81-10.77,6.81-19.76v-41.74h-30.43Zm4.34,26.54l-.35.28c-1.13.92-2.64,1.39-4.48,1.39-2.09,0-3.81-.65-5.1-1.92-1.29-1.28-1.95-3-1.95-5.13,0-3.55,1.78-7.77,10.3-7.77h1.58v13.15Z"></path>
    <path class="cls-1" d="m614.52,223.5h24.51v-33.24c0-6.29-1.63-11.21-4.85-14.63-3.2-3.4-7.67-5.13-13.28-5.13-3.76,0-7.17.73-10.15,2.17-3,1.45-6.05,3.79-9.07,6.94l-.85.9-.64-1.06c-3.65-6.02-9.14-8.95-16.78-8.95-6.36,0-11.77,2.35-16.08,6.98l-1.64,1.76v-5.23c-12.84,1.52-26.05.04-26.05.04v49.46h26.05v-36.31l.4-.28c1.9-1.34,3.81-2.03,5.66-2.03s3.39.66,4.5,1.97c1.06,1.25,1.6,2.96,1.6,5.09v31.56h24.51v-36.4l.41-.28c1.84-1.28,3.74-1.93,5.65-1.93s3.31.65,4.44,1.92c1.11,1.25,1.66,2.97,1.66,5.13v31.56Z"></path>
    <path class="cls-1" d="m390.83,157.51v5.41h0v9.94s-4.13-.87-9.18-.82c-1.18.01-4.4.16-7.44.97-3.12.83-6.06,2.31-6.58,2.59-7.59,4.08-10.9,10.63-12.32,16.13-.11.43-.52,2.13-.77,3.96-.21,1.54-.27,3.26-.28,3.61-.02,1.04.13,2.71.16,2.94,1.27,12.21,10.58,21.68,21.92,21.68.69,0,1.35-.05,2.01-.11.18-.02.36-.04.53-.06.27-.03.54-.07.8-.11,5.46-.89,9.68-3.69,11.14-4.76v4.69h0v.1h26.07v-66.18c-1.13.12-14.22,1.54-26.07.03Zm0,53.14c-1.28.65-2.76,1-4.47,1-2.98,0-5.43-1.09-7.27-3.24-1.85-2.15-2.78-5.05-2.78-8.63,0-5.28,2.32-15.26,14.52-12.59v23.46Z"></path>
    <path class="cls-1" d="m130.12,157.51v5.41h0v9.94s-4.13-.87-9.18-.82c-1.18.01-4.4.16-7.44.97-3.12.83-6.06,2.31-6.58,2.59-7.59,4.08-10.9,10.63-12.32,16.13-.11.43-.52,2.13-.77,3.96-.21,1.54-.27,3.26-.28,3.61-.02,1.04.13,2.71.16,2.94,1.27,12.21,10.58,21.68,21.92,21.68.69,0,1.35-.05,2.01-.11.18-.02.36-.04.53-.06.27-.03.54-.07.8-.11,5.46-.89,9.68-3.69,11.14-4.76v4.69h0v.1h26.07v-66.18c-1.13.12-14.22,1.54-26.07.03Zm0,53.14c-1.28.65-2.76,1-4.47,1-2.98,0-5.43-1.09-7.27-3.24-1.85-2.15-2.78-5.05-2.78-8.63,0-5.28,2.32-15.26,14.52-12.59v23.46Z"></path>
    <path class="cls-1" d="m681,174.01v36.47l-.38.27c-1.84,1.28-3.71,1.93-5.56,1.93-2.78,0-6.1-1.34-6.1-7.73v-30.97c-1.06.12-13.37,1.54-24.52.03v33.03c0,6.67,1.62,11.75,4.83,15.1,3.19,3.33,7.88,5.02,13.94,5.02s11.69-2.35,16.19-6.99l1.6-1.65v5.16h26.07v-49.69c-1.13.12-14.22,1.54-26.07.03Z"></path>
  </g>
</svg>
