<?xml version="1.0" encoding="UTF-8"?>
<svg xmlns="http://www.w3.org/2000/svg" id="_레이어_1" viewBox="0 0 872 124">
  <defs>
    <style>.cls-1{fill:#1c1c1b;}</style>
  </defs>
  <path class="cls-1" d="m126.59,91.32h40.79v-55.31c0-10.47-2.72-18.66-8.08-24.35-5.33-5.66-12.77-8.53-22.1-8.53-6.25,0-11.93,1.22-16.88,3.61-5,2.41-10.07,6.3-15.09,11.56l-1.42,1.49-1.07-1.76c-6.06-10.02-15.2-14.89-27.92-14.89-10.58,0-19.58,3.9-26.76,11.61l-2.72,2.93v-8.71c-21.37,2.54-43.35.06-43.35.06v82.3h43.35V30.91l.66-.47c3.16-2.23,6.33-3.37,9.41-3.37s5.64,1.1,7.48,3.27c1.77,2.09,2.66,4.93,2.66,8.46v52.52h40.79V30.75l.67-.47c3.07-2.14,6.23-3.22,9.4-3.22s5.5,1.08,7.38,3.2c1.84,2.08,2.77,4.95,2.77,8.53v52.52Z"></path>
  <path class="cls-1" d="m204,45.19c-8.8,0-16,2.34-21.4,6.95-5.4,4.62-8.02,10.44-8.02,17.8,0,6.44,2.11,11.62,6.44,15.84,4.35,4.23,9.65,6.29,16.21,6.29,7.85,0,15.15-2.43,21.72-7.22l2.5-1.83v8.3h43.34v-48.54c0-13.41-3.62-23.47-10.77-29.89-7.19-6.48-18.63-9.76-34-9.76s-30.46,3.41-43.11,10.12v23.71c8.33-4.12,16.6-6.21,24.61-6.21,6.08,0,10.93,1.29,14.43,3.84,3.65,2.66,5.5,6.41,5.5,11.13v2.06l-1.99-.54c-5.01-1.36-10.21-2.05-15.46-2.05Zm8.65,31.75c-3.19,0-5.89-.97-8.01-2.89-2.17-1.96-3.26-4.42-3.26-7.34s1.05-5.16,3.11-6.92c3.52-2.99,9.05-3.37,15.9-1.04l1.07.36v14.49l-.56.47c-2.24,1.9-5.01,2.86-8.24,2.86Z"></path>
  <path class="cls-1" d="m337.72,91.32h40.79v-54.71c0-11.11-2.7-19.56-8.03-25.12-5.3-5.55-13.11-8.36-23.2-8.36s-19.45,3.91-26.93,11.64l-2.7,2.79v-8.61s-22.8,2.68-43.35.06v82.3h43.35V30.9l.67-.47c3.06-2.13,6.17-3.21,9.25-3.21,4.63,0,10.15,2.23,10.15,12.86v51.24Z"></path>
  <path class="cls-1" d="m387.91,109.26c13.76,8.22,31.28,12.4,52.07,12.4,16.07,0,28.05-3.49,35.61-10.38,7.52-6.85,11.34-17.92,11.34-32.88V8.95h-50.63c-10.89,0-18.7.41-23.2,1.22-4.4.79-8.47,2.27-12.08,4.42-3.53,2.11-6.68,5.55-9.37,10.23-2.68,4.67-4.04,10.37-4.04,16.93,0,9.94,3.19,17.95,9.47,23.83,6.31,5.91,14.98,8.9,25.75,8.9,7.24,0,13.39-1.56,18.27-4.65l1.98-1.25.41,2.31c.16.94.25,1.84.25,2.68,0,8.73-6.86,13.16-20.38,13.16s-24.77-4.76-35.44-14.15v36.67Zm47.56-53.37c-3.48,0-6.33-1.08-8.48-3.2-2.16-2.13-3.25-5-3.25-8.53,0-5.9,2.97-12.93,17.14-12.93h2.63v21.88l-.58.47c-1.88,1.53-4.39,2.31-7.46,2.31Z"></path>
  <path class="cls-1" d="m496.43,91.32h43.34v-32.21c0-11.07,2.52-18.82,7.48-23.02l1.14-.96,1.03,1.08c4.95,5.24,10.73,7.79,17.66,7.79,6.03,0,10.77-1.85,14.49-5.66,3.72-3.82,5.53-8.71,5.53-14.96s-1.85-10.7-5.64-14.54c-3.79-3.84-8.49-5.7-14.37-5.7-10.64,0-18.59,6.44-24.29,19.66l-3.02,7.01V8.95c-24.46,2.54-43.34,0-43.34,0v82.37Z"></path>
  <path class="cls-1" d="m633.52,2c-14.11,0-25.75,4.26-34.58,12.66-8.81,8.37-13.28,19.41-13.28,32.79s4.53,24.36,13.45,32.67c8.96,8.33,20.54,12.55,34.4,12.55s25.91-4.24,34.77-12.59c8.83-8.32,13.31-19.3,13.31-32.63s-4.48-24.41-13.32-32.79c-8.86-8.4-20.55-12.66-34.76-12.66Zm0,56.43c-3.44,0-6.28-1.12-8.46-3.34-2.17-2.19-3.27-5.07-3.27-8.55s1.1-6.37,3.27-8.59c2.17-2.23,5.02-3.37,8.46-3.37s6.35,1.12,8.56,3.32c2.21,2.2,3.32,5.11,3.32,8.64s-1.12,6.36-3.32,8.56c-2.2,2.2-5.08,3.32-8.56,3.32Z"></path>
  <path class="cls-1" d="m712.8,91.32h32.32l35.91-82.37h-43.06l-8.88,20.42-9.04-20.42h-43.07l35.82,82.37Z"></path>
  <path class="cls-1" d="m822.75,2c-13.55,0-24.71,4.18-33.17,12.42-8.44,8.22-12.73,19.04-12.73,32.12,0,13.77,4.66,25.01,13.85,33.41,9.23,8.44,21.66,12.71,36.93,12.71,18.3,0,32.55-6.39,42.37-18.98,0,0-3.97-2.62-8.41-6.68-4.49,1.84-9.56,2.77-15.15,2.77s-10.38-1.4-14.62-4.17c-4.29-2.78-7.38-6.69-9.2-11.61l-.78-2.12h48.15c-.12-7.99-1.15-14.87-3.06-20.48-2.03-5.94-5.23-11.21-9.51-15.67-4.29-4.48-9.44-7.92-15.31-10.23-5.9-2.32-12.42-3.5-19.36-3.5Zm22.11,37.17h-25.11v-1.58c0-5.08,1.19-9.04,3.54-11.75,2.41-2.78,5.32-4.19,8.64-4.19,3.75,0,6.83,1.47,9.17,4.38,2.23,2.78,3.48,6.65,3.7,11.48l.07,1.65Z"></path>
</svg>
