<?xml version="1.0" encoding="UTF-8"?>
<svg xmlns="http://www.w3.org/2000/svg" id="_레이어_1" viewBox="0 0 872 244">
  <defs>
    <style>.cls-1{fill:#1c1c1b;}</style>
  </defs>
  <g>
    <path class="cls-1" d="m126.59,91.32h40.79v-55.31c0-10.47-2.72-18.66-8.08-24.35-5.33-5.66-12.77-8.53-22.1-8.53-6.25,0-11.93,1.22-16.88,3.61-5,2.41-10.07,6.3-15.09,11.56l-1.42,1.49-1.07-1.76c-6.06-10.02-15.2-14.89-27.92-14.89-10.58,0-19.58,3.9-26.76,11.61l-2.72,2.93v-8.71c-21.37,2.54-43.35.06-43.35.06v82.3h43.35V30.91l.66-.47c3.16-2.23,6.33-3.37,9.41-3.37s5.64,1.1,7.48,3.27c1.77,2.09,2.66,4.93,2.66,8.46v52.52h40.79V30.75l.67-.47c3.07-2.14,6.23-3.22,9.4-3.22s5.5,1.08,7.38,3.2c1.84,2.08,2.77,4.95,2.77,8.53v52.52Z"></path>
    <path class="cls-1" d="m204,45.19c-8.8,0-16,2.34-21.4,6.95-5.4,4.62-8.02,10.44-8.02,17.8,0,6.44,2.11,11.62,6.44,15.84,4.35,4.23,9.65,6.29,16.21,6.29,7.85,0,15.15-2.43,21.72-7.22l2.5-1.83v8.3h43.34v-48.54c0-13.41-3.62-23.47-10.77-29.89-7.19-6.48-18.63-9.76-34-9.76s-30.46,3.41-43.11,10.12v23.71c8.33-4.12,16.6-6.21,24.61-6.21,6.08,0,10.93,1.29,14.43,3.84,3.65,2.66,5.5,6.41,5.5,11.13v2.06l-1.99-.54c-5.01-1.36-10.21-2.05-15.46-2.05Zm8.65,31.75c-3.19,0-5.89-.97-8.01-2.89-2.17-1.96-3.26-4.42-3.26-7.34s1.05-5.16,3.11-6.92c3.52-2.99,9.05-3.37,15.9-1.04l1.07.36v14.49l-.56.47c-2.24,1.9-5.01,2.86-8.24,2.86Z"></path>
    <path class="cls-1" d="m337.72,91.32h40.79v-54.71c0-11.11-2.7-19.56-8.03-25.12-5.3-5.55-13.11-8.36-23.2-8.36s-19.45,3.91-26.93,11.64l-2.7,2.79v-8.61s-22.8,2.68-43.35.06v82.3h43.35V30.9l.67-.47c3.06-2.13,6.17-3.21,9.25-3.21,4.63,0,10.15,2.23,10.15,12.86v51.24Z"></path>
    <path class="cls-1" d="m387.91,109.26c13.76,8.22,31.28,12.4,52.07,12.4,16.07,0,28.05-3.49,35.61-10.38,7.52-6.85,11.34-17.92,11.34-32.88V8.95h-50.63c-10.89,0-18.7.41-23.2,1.22-4.4.79-8.47,2.27-12.08,4.42-3.53,2.11-6.68,5.55-9.37,10.23-2.68,4.67-4.04,10.37-4.04,16.93,0,9.94,3.19,17.95,9.47,23.83,6.31,5.91,14.98,8.9,25.75,8.9,7.24,0,13.39-1.56,18.27-4.65l1.98-1.25.41,2.31c.16.94.25,1.84.25,2.68,0,8.73-6.86,13.16-20.38,13.16s-24.77-4.76-35.44-14.15v36.67Zm47.56-53.37c-3.48,0-6.33-1.08-8.48-3.2-2.16-2.13-3.25-5-3.25-8.53,0-5.9,2.97-12.93,17.14-12.93h2.63v21.88l-.58.47c-1.88,1.53-4.39,2.31-7.46,2.31Z"></path>
    <path class="cls-1" d="m496.43,91.32h43.34v-32.21c0-11.07,2.52-18.82,7.48-23.02l1.14-.96,1.03,1.08c4.95,5.24,10.73,7.79,17.66,7.79,6.03,0,10.77-1.85,14.49-5.66,3.72-3.82,5.53-8.71,5.53-14.96s-1.85-10.7-5.64-14.54c-3.79-3.84-8.49-5.7-14.37-5.7-10.64,0-18.59,6.44-24.29,19.66l-3.02,7.01V8.95c-24.46,2.54-43.34,0-43.34,0v82.37Z"></path>
    <path class="cls-1" d="m633.52,2c-14.11,0-25.75,4.26-34.58,12.66-8.81,8.37-13.28,19.41-13.28,32.79s4.53,24.36,13.45,32.67c8.96,8.33,20.54,12.55,34.4,12.55s25.91-4.24,34.77-12.59c8.83-8.32,13.31-19.3,13.31-32.63s-4.48-24.41-13.32-32.79c-8.86-8.4-20.55-12.66-34.76-12.66Zm0,56.43c-3.44,0-6.28-1.12-8.46-3.34-2.17-2.19-3.27-5.07-3.27-8.55s1.1-6.37,3.27-8.59c2.17-2.23,5.02-3.37,8.46-3.37s6.35,1.12,8.56,3.32c2.21,2.2,3.32,5.11,3.32,8.64s-1.12,6.36-3.32,8.56c-2.2,2.2-5.08,3.32-8.56,3.32Z"></path>
    <path class="cls-1" d="m712.8,91.32h32.32l35.91-82.37h-43.06l-8.88,20.42-9.04-20.42h-43.07l35.82,82.37Z"></path>
    <path class="cls-1" d="m822.75,2c-13.55,0-24.71,4.18-33.17,12.42-8.44,8.22-12.73,19.04-12.73,32.12,0,13.77,4.66,25.01,13.85,33.41,9.23,8.44,21.66,12.71,36.93,12.71,18.3,0,32.55-6.39,42.37-18.98,0,0-3.97-2.62-8.41-6.68-4.49,1.84-9.56,2.77-15.15,2.77s-10.38-1.4-14.62-4.17c-4.29-2.78-7.38-6.69-9.2-11.61l-.78-2.12h48.15c-.12-7.99-1.15-14.87-3.06-20.48-2.03-5.94-5.23-11.21-9.51-15.67-4.29-4.48-9.44-7.92-15.31-10.23-5.9-2.32-12.42-3.5-19.36-3.5Zm22.11,37.17h-25.11v-1.58c0-5.08,1.19-9.04,3.54-11.75,2.41-2.78,5.32-4.19,8.64-4.19,3.75,0,6.83,1.47,9.17,4.38,2.23,2.78,3.48,6.65,3.7,11.48l.07,1.65Z"></path>
  </g>
  <g>
    <path class="cls-1" d="m480.4,234.1c8.24,4.93,18.73,7.43,31.19,7.43,9.62,0,16.8-2.09,21.33-6.22,4.51-4.1,6.79-10.73,6.79-19.69v-41.59h-30.33c-6.52,0-11.2.25-13.89.73-2.64.47-5.07,1.36-7.23,2.65-2.12,1.26-4,3.32-5.61,6.13-1.61,2.8-2.42,6.21-2.42,10.14,0,5.95,1.91,10.75,5.67,14.27,3.78,3.54,8.97,5.33,15.42,5.33,4.34,0,8.02-.94,10.94-2.78l1.19-.75.24,1.38c.1.56.15,1.1.15,1.61,0,5.23-4.11,7.88-12.21,7.88s-14.84-2.85-21.23-8.47v21.96Zm28.48-31.97c-2.08,0-3.79-.65-5.08-1.92-1.29-1.27-1.95-2.99-1.95-5.11,0-3.53,1.78-7.74,10.27-7.74h1.58v13.11l-.35.28c-1.13.92-2.63,1.38-4.47,1.38Z"></path>
    <path class="cls-1" d="m450.74,223.64h24.58v-32.97c0-6.69-1.63-11.79-4.84-15.14-3.2-3.34-7.9-5.04-13.98-5.04s-11.72,2.36-16.23,7.01l-1.63,1.68v-5.19s-13.74,1.61-26.12.04v49.6h26.12v-36.41l.41-.28c1.85-1.28,3.72-1.94,5.57-1.94,2.79,0,6.11,1.34,6.11,7.75v30.88Z"></path>
    <path class="cls-1" d="m615.41,223.64h24.58v-32.97c0-6.69-1.63-11.79-4.84-15.14-3.2-3.34-7.9-5.04-13.98-5.04s-11.72,2.36-16.23,7.01l-1.63,1.68v-5.19s-13.74,1.61-26.12.04v49.6h26.12v-36.41l.41-.28c1.85-1.28,3.72-1.94,5.57-1.94,2.79,0,6.11,1.34,6.11,7.75v30.88Z"></path>
    <path class="cls-1" d="m276.81,189.2c-2.09-1.91-4.24-3.37-6.47-4.4-2.22-1.03-4.34-1.54-6.33-1.54-1.36,0-2.47.29-3.31.88-.85.59-1.27,1.37-1.27,2.34,0,1.45.62,2.57,1.86,3.36.64.39,1.55.79,2.75,1.18,1.19.39,2.69.79,4.47,1.18,5.72,1.33,9.91,3.4,12.58,6.2,2.66,2.8,3.99,6.33,3.99,10.6,0,5.69-2.29,10.14-6.85,13.35-4.57,3.24-10.47,4.86-17.71,4.86-2.18,0-4.48-.14-6.9-.41-2.42-.27-5.01-.67-7.76-1.18-2.75-.51-5.4-1.16-7.94-1.93-2.54-.77-5.01-1.64-7.4-2.61l6.27-15.34c1.75,2.48,4.03,4.49,6.81,6.04,2.78,1.51,5.52,2.27,8.22,2.27,1.63,0,2.94-.36,3.93-1.09.98-.73,1.48-1.66,1.48-2.81,0-1.42-.6-2.54-1.79-3.36-1.2-.82-3.04-1.56-5.52-2.22-6.63-1.72-11.18-4.05-13.66-6.99-2.51-2.97-3.77-6.22-3.77-9.76,0-5.39,2.31-9.61,6.95-12.67,4.66-3.03,11.24-4.54,19.75-4.54,4.66,0,9.04.39,13.14,1.18,4.1.79,7.85,1.95,11.24,3.5l-6.72,13.94Z"></path>
    <path class="cls-1" d="m316.34,170.64c4.35,0,8.37.7,12.04,2.11,3.67,1.41,6.83,3.36,9.48,5.87,2.65,2.51,4.71,5.5,6.19,8.98,1.48,3.48,2.22,7.27,2.22,11.38s-.74,7.85-2.2,11.29c-1.47,3.45-3.51,6.43-6.14,8.93-2.63,2.51-5.78,4.47-9.46,5.87-3.67,1.41-7.72,2.11-12.13,2.11-5.56,0-10.64-1.16-15.24-3.49-4.53-2.33-8.1-5.62-10.7-9.89-2.57-4.29-3.86-9.24-3.86-14.83s1.25-10.42,3.77-14.74c2.54-4.32,6.06-7.66,10.57-10.02,4.51-2.39,9.66-3.58,15.47-3.58Zm0,34.01c1.9,0,3.42-.56,4.54-1.68s1.68-2.63,1.68-4.53-.57-3.42-1.7-4.56c-1.13-1.13-2.65-1.7-4.56-1.7-.91,0-1.73.15-2.47.45-.74.3-1.38.73-1.9,1.29-.53.56-.95,1.23-1.25,2-.3.77-.45,1.61-.45,2.52,0,1.84.57,3.34,1.7,4.49,1.13,1.15,2.61,1.72,4.42,1.72Z"></path>
    <path class="cls-1" d="m378.92,170.58c4.35,0,8.37.7,12.04,2.11,3.67,1.41,6.83,3.36,9.48,5.87,2.65,2.51,4.71,5.5,6.19,8.98,1.48,3.48,2.22,7.27,2.22,11.38s-.73,7.85-2.2,11.29c-1.47,3.45-3.51,6.43-6.14,8.93-2.63,2.51-5.78,4.47-9.46,5.87-3.67,1.41-7.72,2.11-12.13,2.11-5.56,0-10.64-1.16-15.24-3.49-4.54-2.33-8.1-5.62-10.7-9.89-2.57-4.29-3.85-9.24-3.85-14.83s1.25-10.42,3.77-14.74c2.54-4.32,6.06-7.66,10.57-10.02,4.5-2.39,9.66-3.58,15.47-3.58Zm0,34.01c1.91,0,3.42-.56,4.53-1.68,1.12-1.12,1.68-2.63,1.68-4.53s-.57-3.42-1.7-4.56c-1.13-1.13-2.65-1.7-4.56-1.7-.91,0-1.73.15-2.47.45-.74.3-1.38.73-1.9,1.29-.53.56-.95,1.23-1.25,2-.3.77-.45,1.61-.45,2.52,0,1.84.57,3.34,1.7,4.49,1.13,1.15,2.61,1.72,4.42,1.72Z"></path>
    <g>
      <path class="cls-1" d="m571.48,174.02c-1.13.13-14.2,1.54-26.04.03v49.59h26.04v-49.62Z"></path>
      <path class="cls-1" d="m550.45,152.96c-2.04,2.09-3.07,4.8-3.07,8.07s1.04,5.97,3.07,8.03c2.04,2.08,4.72,3.13,7.95,3.13s5.97-1.05,8.04-3.12c2.07-2.07,3.12-4.78,3.12-8.04s-1.05-6.04-3.12-8.11c-2.07-2.07-4.77-3.12-8.04-3.12s-5.91,1.07-7.95,3.17Z"></path>
    </g>
  </g>
</svg>
