<svg xmlns="http://www.w3.org/2000/svg" width="300.961" height="51.973" viewBox="0 0 300.961 51.973"><g transform="translate(-2310.295 1213.322)"><g transform="translate(2310.295 -1213.322)"><path d="M71.084,76.723v27.814H61.295V54.381h6.6S87.131,82.118,87.638,82.812c1.786-2.6,19.47-28.5,19.47-28.5H113.8v50.228h-9.785V76.723L89.963,96.382h-4.8Z" transform="translate(-61.295 -53.452)" fill="#fff" fill-rule="evenodd"/><path d="M285.737,59.906c-2.194,2.4-4.316,4.726-6.523,7.149a20.062,20.062,0,0,0-11.236-5.46c-11.056-1.477-20.049,6.865-18.58,18.283.913,7.13,4.949,11.917,12.033,13.571,5.479,1.438,11.874-.219,16.761-4.318.339-.283.692-.634.692-.634V81.728H266.8V78.767H288.02V93.487a6.514,6.514,0,0,1-.673.757c-9.192,9.288-22.892,11.934-33.882,6.885-9.96-4.579-14.572-12.872-14.528-23.623.015-12.156,7.2-21.568,18.915-24.7a28.356,28.356,0,0,1,26.95,6.1A12.842,12.842,0,0,1,285.737,59.906Z" transform="translate(-180.761 -51.678)" fill="#fff" fill-rule="evenodd"/><path d="M409.662,54.265s13.49-.07,19.185.028c4.551.077,8.819,1.077,12.375,4.226,7.135,6.32,6.737,20.957-3.719,25.739-.474.226-.95.462-1.59.783,3.992,6.432,12.115,19.533,12.115,19.533h-11.75L424,83.451h-4.276v21.016H409.662ZM419.8,80.505s8.913.018,9.555-.033c3.611-.348,6.343-3.51,6.343-7.794s-1.8-8.49-5.021-8.785c-3.574-.323-10.877-.072-10.877-.072Z" transform="translate(-295.574 -53.401)" fill="#fff" fill-rule="evenodd"/><path d="M520.1,54.237h11.525l13.265,34.8,13.205-34.8,11.341.026-20.562,50.352h-8.027Z" transform="translate(-369.844 -53.399)" fill="#fff" fill-rule="evenodd"/></g><g transform="translate(2520.316 -1211.124)"><g transform="translate(0 0)"><path d="M712.545,66.284v1.583a7.513,7.513,0,0,1-3.656.864,5.639,5.639,0,0,1-2.857-.677,4.979,4.979,0,0,1-1.856-1.864,5.062,5.062,0,0,1-.684-2.569,4.909,4.909,0,0,1,1.565-3.691,5.373,5.373,0,0,1,3.861-1.5,9.047,9.047,0,0,1,3.519.828v1.547A6.926,6.926,0,0,0,708.99,59.8a3.991,3.991,0,0,0-2.868,1.09,3.626,3.626,0,0,0-1.14,2.731,3.586,3.586,0,0,0,1.123,2.72,4,4,0,0,0,2.871,1.065A6.513,6.513,0,0,0,712.545,66.284Z" transform="translate(-703.197 -58.418)" fill="#fff"/><path d="M741.457,58.388a5.407,5.407,0,0,1,3.88,1.476,4.892,4.892,0,0,1,1.549,3.7,4.817,4.817,0,0,1-1.563,3.681,5.567,5.567,0,0,1-3.945,1.457,5.248,5.248,0,0,1-3.787-1.457,4.859,4.859,0,0,1-1.513-3.653,4.965,4.965,0,0,1,1.524-3.727A5.318,5.318,0,0,1,741.457,58.388Zm.058,1.368a3.9,3.9,0,0,0-2.836,1.079,3.678,3.678,0,0,0-1.112,2.756,3.613,3.613,0,0,0,1.115,2.706,4.136,4.136,0,0,0,5.6-.022,3.679,3.679,0,0,0,1.126-2.741,3.6,3.6,0,0,0-1.126-2.688A3.823,3.823,0,0,0,741.514,59.756Z" transform="translate(-725.111 -58.388)" fill="#fff"/><path d="M783.321,58.827h1.344V68.88H783.22V61.058l-3.091,3.886h-.266l-3.127-3.886V68.88H775.3V58.827h1.362L780,62.956Z" transform="translate(-751.487 -58.683)" fill="#fff"/><path d="M819.356,58.827H820.7V68.88h-1.446V61.058l-3.09,3.886H815.9l-3.126-3.886V68.88h-1.439V58.827h1.362l3.341,4.129Z" transform="translate(-775.72 -58.683)" fill="#fff"/><path d="M854.018,58.827h1.446v5.707a6.75,6.75,0,0,1-.169,1.748,3.784,3.784,0,0,1-.417.983,3.161,3.161,0,0,1-.608.7,5.311,5.311,0,0,1-6.275.007,3.247,3.247,0,0,1-.608-.708,3.7,3.7,0,0,1-.411-.962,7.127,7.127,0,0,1-.162-1.785V58.827h1.447v5.707a4.225,4.225,0,0,0,.323,1.972,2.314,2.314,0,0,0,.986.889,3.424,3.424,0,0,0,1.561.335,3.157,3.157,0,0,0,2.087-.67,2.066,2.066,0,0,0,.612-.849,5.2,5.2,0,0,0,.187-1.676Z" transform="translate(-799.582 -58.683)" fill="#fff"/><path d="M888.29,58.827h1.368V68.88h-1.238l-6.72-7.742V68.88h-1.353V58.827h1.165l6.779,7.808Z" transform="translate(-822.133 -58.683)" fill="#fff"/><path d="M916.293,58.827h1.439V68.88h-1.439Z" transform="translate(-846.307 -58.683)" fill="#fff"/><path d="M925.785,58.784h8.4v1.28h-3.5v8.787h-1.447V60.065h-3.446Z" transform="translate(-852.691 -58.654)" fill="#fff"/><path d="M960.25,58.827H962l-3.713,4.735V68.88h-1.476V63.562L953.1,58.827h1.737l2.69,3.466Z" transform="translate(-871.057 -58.683)" fill="#fff"/><path d="M709.474,121.779l-1.17-1.372a6.494,6.494,0,0,1-.518.441l-.015.014a4.727,4.727,0,0,1-1.264.729,3.8,3.8,0,0,1-1.415.3,2.5,2.5,0,0,1-1.772-.68,2.184,2.184,0,0,1-.728-1.659,2.339,2.339,0,0,1,.357-1.273,4.434,4.434,0,0,1,1.161-1.158l.022-.022a7.118,7.118,0,0,1,.82-.54,3.521,3.521,0,0,1-1.137-2.331,2.161,2.161,0,0,1,.7-1.67,2.578,2.578,0,0,1,1.813-.64,2.6,2.6,0,0,1,1.8.627,2.046,2.046,0,0,1,.706,1.6,3.364,3.364,0,0,1-1.763,2.565l-.1.079,1.417,1.614a6.826,6.826,0,0,0,1.08-1.62H710.9a9.138,9.138,0,0,1-1.637,2.637l2.04,2.356Zm-2.383-2.08.324-.3-1.634-1.885-.633.446q-1.123.755-1.123,1.533a.912.912,0,0,0,.366.726,1.351,1.351,0,0,0,.887.3,2.238,2.238,0,0,0,.91-.23A3.392,3.392,0,0,0,707.091,119.7Zm-.938-3.878.55-.389a1.538,1.538,0,0,0,.768-1.256.964.964,0,0,0-.32-.736,1.26,1.26,0,0,0-1.595-.022.876.876,0,0,0-.31.684,1.885,1.885,0,0,0,.242.862A3.178,3.178,0,0,0,706.154,115.821Z" transform="translate(-702.592 -94.389)" fill="#fff"/><path d="M748.564,116.9l-1.094-.664A4.957,4.957,0,0,1,746,115a2.338,2.338,0,0,1-.435-1.4,2.473,2.473,0,0,1,.823-1.929,3.08,3.08,0,0,1,2.141-.741,4.053,4.053,0,0,1,2.309.707v1.634a3.329,3.329,0,0,0-2.338-1.045,1.94,1.94,0,0,0-1.16.326.989.989,0,0,0-.452.835,1.284,1.284,0,0,0,.333.846,4.213,4.213,0,0,0,1.074.828l1.1.65a3.222,3.222,0,0,1,1.839,2.8,2.565,2.565,0,0,1-.81,1.965,2.965,2.965,0,0,1-2.106.755,4.426,4.426,0,0,1-2.712-.915v-1.828a3.389,3.389,0,0,0,2.7,1.476,1.7,1.7,0,0,0,1.127-.376,1.181,1.181,0,0,0,.45-.944Q749.888,117.727,748.564,116.9Z" transform="translate(-731.495 -93.725)" fill="#fff"/><path d="M768.375,121.351V111.284h3.188a3.286,3.286,0,0,1,2.3.777,2.679,2.679,0,0,1,.856,2.086,2.788,2.788,0,0,1-.439,1.554,2.514,2.514,0,0,1-1.2.983,6.127,6.127,0,0,1-2.188.305h-1.066v4.36Zm2.936-8.786h-1.49v3.145H771.4a1.99,1.99,0,0,0,1.353-.415,1.483,1.483,0,0,0,.475-1.183Q773.225,112.565,771.311,112.564Z" transform="translate(-746.831 -93.961)" fill="#fff"/><path d="M789.786,111.151H790.8l4.508,10.11h-1.473l-1.339-2.979H788.2l-1.257,2.979h-1.479ZM791.9,117l-1.622-3.641-1.5,3.641Z" transform="translate(-758.326 -93.871)" fill="#fff"/><path d="M825.831,118.784v1.582a7.511,7.511,0,0,1-3.655.864,5.639,5.639,0,0,1-2.857-.676,4.986,4.986,0,0,1-1.857-1.864,5.065,5.065,0,0,1-.683-2.569,4.908,4.908,0,0,1,1.565-3.691,5.373,5.373,0,0,1,3.861-1.5,9.053,9.053,0,0,1,3.519.828v1.547a6.928,6.928,0,0,0-3.447-1.008,3.99,3.99,0,0,0-2.868,1.09,3.626,3.626,0,0,0-1.141,2.731,3.587,3.587,0,0,0,1.123,2.72,4,4,0,0,0,2.871,1.064A6.515,6.515,0,0,0,825.831,118.784Z" transform="translate(-779.383 -93.725)" fill="#fff"/><path d="M850.727,111.327h5.7v1.281h-4.26v3.065h4.116v1.288h-4.116v3.123h4.4v1.281h-5.836Z" transform="translate(-802.214 -93.99)" fill="#fff"/></g></g></g></svg>