<svg xmlns="http://www.w3.org/2000/svg" width="26" height="26" viewBox="0 0 26 26"><g transform="translate(-32 -1211)"><rect width="26" height="26" transform="translate(32 1211)" fill="#d5fcdf" opacity="0"/><path d="M10.869,7.534a5.574,5.574,0,1,0,5.574,5.574A5.565,5.565,0,0,0,10.869,7.534Zm0,9.2a3.624,3.624,0,1,1,3.624-3.624A3.63,3.63,0,0,1,10.869,16.731Zm7.1-9.425a1.3,1.3,0,1,1-1.3-1.3A1.3,1.3,0,0,1,17.971,7.306Zm3.692,1.319A6.434,6.434,0,0,0,19.907,4.07a6.476,6.476,0,0,0-4.555-1.756c-1.795-.1-7.175-.1-8.969,0A6.467,6.467,0,0,0,1.827,4.065,6.455,6.455,0,0,0,.071,8.62c-.1,1.795-.1,7.175,0,8.969a6.434,6.434,0,0,0,1.756,4.555A6.484,6.484,0,0,0,6.382,23.9c1.795.1,7.175.1,8.969,0a6.434,6.434,0,0,0,4.555-1.756,6.476,6.476,0,0,0,1.756-4.555c.1-1.795.1-7.17,0-8.965Zm-2.319,10.89a3.669,3.669,0,0,1-2.067,2.067c-1.431.568-4.827.437-6.408.437s-4.982.126-6.408-.437a3.669,3.669,0,0,1-2.067-2.067c-.568-1.431-.437-4.827-.437-6.408S1.832,8.126,2.395,6.7A3.669,3.669,0,0,1,4.461,4.633C5.892,4.065,9.288,4.2,10.869,4.2s4.982-.126,6.408.437A3.669,3.669,0,0,1,19.344,6.7c.568,1.431.437,4.827.437,6.408S19.912,18.089,19.344,19.516Z" transform="translate(34.133 1210.762)" fill="#b1b1b1"/></g></svg>