<?xml version="1.0" encoding="UTF-8"?>
<svg xmlns="http://www.w3.org/2000/svg" id="_레이어_1" viewBox="0 0 872 244">
  <defs>
    <style>.cls-1{fill:#1c1c1b;}</style>
  </defs>
  <g>
    <path class="cls-1" d="m126.59,91.32h40.79v-55.31c0-10.47-2.72-18.66-8.08-24.35-5.33-5.66-12.77-8.53-22.1-8.53-6.25,0-11.93,1.22-16.88,3.61-5,2.41-10.07,6.3-15.08,11.55l-1.42,1.49-1.06-1.76c-6.07-10.02-15.2-14.89-27.92-14.89-10.58,0-19.58,3.9-26.75,11.61l-2.73,2.93v-8.71c-21.37,2.53-43.35.06-43.35.06v82.31h43.35V30.91l.66-.47c3.16-2.24,6.33-3.37,9.41-3.37s5.64,1.1,7.48,3.27c1.77,2.08,2.67,4.93,2.67,8.46v52.52h40.79V30.75l.67-.47c3.06-2.13,6.23-3.22,9.4-3.22s5.5,1.08,7.39,3.2c1.84,2.08,2.77,4.95,2.77,8.53v52.52Z"></path>
    <path class="cls-1" d="m212.65,76.93c-3.19,0-5.89-.98-8.01-2.89-2.17-1.96-3.26-4.42-3.26-7.34s1.05-5.15,3.1-6.91c3.52-2.99,9.05-3.37,15.9-1.04l1.07.36v14.49l-.56.47c-2.24,1.9-5.01,2.86-8.24,2.86m-8.65-31.75c-8.8,0-16,2.34-21.4,6.95-5.39,4.62-8.02,10.44-8.02,17.8,0,6.44,2.11,11.62,6.45,15.84,4.35,4.23,9.65,6.29,16.21,6.29,7.85,0,15.16-2.44,21.72-7.23l2.5-1.83v8.3h43.34v-48.54c0-13.41-3.62-23.47-10.77-29.9-7.18-6.47-18.63-9.76-34-9.76s-30.46,3.41-43.11,10.12v23.71c.76-.37,1.51-.73,2.27-1.07,7.56-3.41,15.06-5.14,22.33-5.14,6.08,0,10.93,1.29,14.43,3.84,3.65,2.66,5.51,6.4,5.51,11.12v2.06l-1.99-.54c-5.01-1.36-10.21-2.05-15.46-2.05"></path>
    <path class="cls-1" d="m337.72,91.32h40.8v-54.71c0-11.11-2.7-19.56-8.03-25.13-5.3-5.54-13.11-8.36-23.2-8.36s-19.45,3.91-26.93,11.64l-2.7,2.79v-8.6s-22.81,2.68-43.35.06v82.31h43.35V30.9l.67-.47c3.06-2.13,6.17-3.21,9.25-3.21,4.63,0,10.15,2.23,10.15,12.86v51.24Z"></path>
    <path class="cls-1" d="m435.46,55.89c-3.48,0-6.33-1.08-8.48-3.2-2.15-2.12-3.25-5-3.25-8.53,0-5.9,2.97-12.93,17.14-12.93h2.64v21.88l-.59.47c-1.88,1.54-4.39,2.31-7.46,2.31m-47.55,53.37c13.77,8.23,31.27,12.39,52.07,12.39,16.07,0,28.05-3.49,35.62-10.38,7.52-6.85,11.34-17.92,11.34-32.88V8.95h-50.64c-10.89,0-18.7.41-23.2,1.22-4.4.79-8.47,2.27-12.07,4.42-3.53,2.11-6.68,5.55-9.37,10.22-2.68,4.67-4.04,10.37-4.04,16.94,0,9.93,3.19,17.95,9.47,23.83,6.31,5.91,14.98,8.9,25.75,8.9,7.24,0,13.38-1.56,18.27-4.64l1.99-1.25.4,2.31c.17.93.25,1.84.25,2.68,0,8.73-6.86,13.16-20.38,13.16-7.88,0-15.39-1.78-22.48-5.32-3.59-1.79-7.08-4.03-10.45-6.72-.85-.67-1.68-1.38-2.51-2.11v36.67Z"></path>
    <path class="cls-1" d="m496.43,91.32h43.34v-32.21c0-11.07,2.52-18.82,7.48-23.02l1.14-.96,1.02,1.09c4.96,5.24,10.73,7.78,17.67,7.78,6.03,0,10.76-1.85,14.48-5.66,3.73-3.81,5.53-8.71,5.53-14.96s-1.84-10.7-5.64-14.54c-3.79-3.84-8.49-5.71-14.37-5.71-10.65,0-18.59,6.43-24.29,19.66l-3.02,7.01V8.95c-24.46,2.54-43.34,0-43.34,0v82.37Z"></path>
    <path class="cls-1" d="m633.52,58.43c-3.44,0-6.28-1.12-8.46-3.34-2.17-2.19-3.28-5.07-3.28-8.54s1.1-6.36,3.27-8.59c2.18-2.24,5.03-3.37,8.46-3.37s6.36,1.12,8.56,3.32c2.21,2.21,3.32,5.11,3.32,8.63s-1.12,6.36-3.32,8.56c-2.2,2.21-5.07,3.32-8.56,3.32m0-56.43c-14.12,0-25.75,4.26-34.58,12.66-8.81,8.37-13.28,19.41-13.28,32.78s4.53,24.36,13.45,32.67c8.96,8.33,20.53,12.55,34.4,12.55s25.91-4.23,34.76-12.59c8.83-8.33,13.32-19.3,13.32-32.64s-4.48-24.4-13.32-32.78c-8.86-8.4-20.55-12.66-34.76-12.66"></path>
    <polygon class="cls-1" points="712.8 91.32 745.12 91.32 781.03 8.95 737.97 8.95 729.08 29.38 720.05 8.95 676.98 8.95 712.8 91.32"></polygon>
    <path class="cls-1" d="m844.86,39.16h-25.11v-1.58c0-5.08,1.19-9.04,3.55-11.74,2.41-2.79,5.31-4.19,8.63-4.19,3.74,0,6.83,1.47,9.17,4.38,2.23,2.79,3.48,6.65,3.7,11.48l.07,1.64Zm-22.11-37.16c-13.55,0-24.71,4.18-33.17,12.42-8.44,8.23-12.73,19.03-12.73,32.12,0,13.77,4.66,25.01,13.85,33.41,9.23,8.44,21.65,12.71,36.93,12.71,18.3,0,32.55-6.39,42.36-18.98,0,0-3.97-2.62-8.4-6.68-4.49,1.84-9.56,2.77-15.15,2.77s-10.38-1.4-14.62-4.17c-4.29-2.78-7.39-6.69-9.2-11.61l-.78-2.12h48.15c-.12-7.99-1.15-14.87-3.06-20.48-2.03-5.94-5.23-11.21-9.5-15.67-4.29-4.48-9.44-7.92-15.32-10.23-5.9-2.32-12.42-3.51-19.36-3.51"></path>
  </g>
  <g>
    <path class="cls-1" d="m542.18,170.56c4.36,0,8.37.7,12.05,2.11,3.67,1.41,6.84,3.37,9.48,5.88,2.65,2.51,4.71,5.51,6.19,8.98,1.48,3.48,2.22,7.28,2.22,11.39s-.74,7.85-2.2,11.3c-1.47,3.45-3.52,6.43-6.15,8.94-2.63,2.51-5.79,4.47-9.46,5.88-3.67,1.41-7.72,2.11-12.14,2.11-5.57,0-10.65-1.16-15.25-3.49-4.54-2.33-8.11-5.63-10.71-9.89-2.57-4.29-3.86-9.24-3.86-14.84s1.26-10.42,3.77-14.75c2.54-4.33,6.06-7.67,10.57-10.03,4.51-2.39,9.67-3.58,15.47-3.58Zm0,34.03c1.91,0,3.42-.56,4.54-1.68s1.68-2.63,1.68-4.54-.57-3.43-1.7-4.56c-1.13-1.13-2.65-1.7-4.56-1.7-.91,0-1.73.15-2.47.45-.74.3-1.38.73-1.91,1.29-.53.56-.95,1.23-1.25,2-.3.77-.45,1.61-.45,2.52,0,1.85.57,3.34,1.7,4.49,1.13,1.15,2.61,1.72,4.42,1.72Z"></path>
    <path class="cls-1" d="m276.63,189.12c-2.09-1.91-4.25-3.38-6.47-4.41-2.23-1.03-4.34-1.54-6.34-1.54-1.36,0-2.47.29-3.32.89-.85.59-1.27,1.37-1.27,2.34,0,1.45.62,2.57,1.86,3.36.64.39,1.55.79,2.75,1.18,1.2.39,2.69.79,4.47,1.18,5.72,1.33,9.92,3.4,12.58,6.2,2.66,2.8,4,6.34,4,10.61,0,5.69-2.29,10.14-6.86,13.35-4.57,3.24-10.48,4.86-17.71,4.86-2.18,0-4.48-.14-6.9-.41-2.42-.27-5.01-.67-7.77-1.18-2.76-.51-5.4-1.16-7.95-1.93-2.54-.77-5.01-1.64-7.4-2.61l6.27-15.35c1.76,2.48,4.03,4.5,6.81,6.04,2.79,1.51,5.53,2.27,8.22,2.27,1.63,0,2.94-.36,3.93-1.09.98-.73,1.48-1.66,1.48-2.82,0-1.42-.6-2.54-1.79-3.36-1.2-.82-3.04-1.56-5.52-2.23-6.63-1.73-11.19-4.06-13.67-6.99-2.51-2.97-3.77-6.22-3.77-9.77,0-5.39,2.32-9.61,6.95-12.67,4.66-3.03,11.25-4.54,19.76-4.54,4.66,0,9.05.39,13.15,1.18s7.85,1.95,11.24,3.5l-6.72,13.94Z"></path>
    <path class="cls-1" d="m359.17,223.64h24.6v-32.99c0-6.7-1.63-11.79-4.84-15.15-3.2-3.34-7.9-5.04-13.99-5.04s-11.73,2.36-16.24,7.02l-1.63,1.68v-5.19s-13.75,1.62-26.14.04v49.62h26.14v-36.43l.41-.28c1.85-1.28,3.72-1.94,5.58-1.94,2.79,0,6.12,1.34,6.12,7.75v30.9Z"></path>
    <path class="cls-1" d="m614.32,223.64h24.6v-32.99c0-6.7-1.63-11.79-4.84-15.15-3.2-3.34-7.9-5.04-13.99-5.04s-11.73,2.36-16.24,7.02l-1.63,1.68v-5.19s-13.75,1.62-26.14.04v49.62h26.14v-36.43l.41-.28c1.85-1.28,3.72-1.94,5.58-1.94,2.79,0,6.12,1.34,6.12,7.75v30.9Z"></path>
    <path class="cls-1" d="m483.81,223.64h24.6v-32.99c0-6.7-1.63-11.79-4.84-15.15-3.2-3.34-7.9-5.04-13.99-5.04s-11.73,2.36-16.24,7.02l-1.63,1.68v-21.68s-13.75,1.62-26.14.04v66.12h26.14v-36.43l.41-.28c1.85-1.28,3.72-1.94,5.58-1.94,2.79,0,6.12,1.34,6.12,7.75v30.9Z"></path>
    <g>
      <path class="cls-1" d="m314.71,174c-1.13.13-14.21,1.54-26.05.03v49.61h26.05v-49.64Z"></path>
      <path class="cls-1" d="m293.66,152.93c-2.04,2.09-3.07,4.8-3.07,8.07s1.04,5.97,3.08,8.03c2.04,2.08,4.72,3.14,7.95,3.14s5.98-1.05,8.04-3.12c2.07-2.07,3.12-4.78,3.12-8.05s-1.05-6.04-3.12-8.12c-2.07-2.07-4.77-3.12-8.04-3.12s-5.91,1.07-7.95,3.17Z"></path>
    </g>
    <path class="cls-1" d="m419.34,170.47c3.36,0,6.79.29,10.29.86,3.51.57,6.86,1.38,10.07,2.4v23.86c-2.75-1.3-5.45-2.29-8.09-2.97-2.65-.68-5.06-.94-7.23-.94-2.66,0-4.75.42-6.26,1.27-1.51.85-2.27,2.04-2.27,3.58,0,1.66.81,2.96,2.43,3.88,1.62.92,4.06,1.38,7.32,1.38,1.33,0,2.64-.07,3.92-.2,1.28-.14,2.58-.32,3.88-.57,1.3-.27,2.48-.58,3.54-.93,1.06-.35,1.98-.73,2.77-1.16v23.67c-2.72.79-5.57,1.38-8.55,1.79-2.98.41-5.98.61-9,.61-10.91,0-19.38-2.63-25.39-7.89-5.99-5.26-8.98-11.94-8.98-20.04s2.9-14.96,8.71-20.4c5.77-5.47,13.39-8.21,22.85-8.21Z"></path>
  </g>
</svg>
