<svg xmlns="http://www.w3.org/2000/svg" width="26" height="26" viewBox="0 0 26 26"><g transform="translate(-88 -1211)"><rect width="26" height="26" transform="translate(88 1211)" fill="#d5fcdf" opacity="0"/><path d="M23.35,7.006a2.862,2.862,0,0,0-2.014-2.027c-1.776-.479-8.9-.479-8.9-.479s-7.122,0-8.9.479A2.862,2.862,0,0,0,1.526,7.006a30.022,30.022,0,0,0-.476,5.518,30.022,30.022,0,0,0,.476,5.518A2.819,2.819,0,0,0,3.54,20.035c1.776.479,8.9.479,8.9.479s7.122,0,8.9-.479a2.819,2.819,0,0,0,2.014-1.994,30.022,30.022,0,0,0,.476-5.518,30.022,30.022,0,0,0-.476-5.518Zm-13.242,8.9V9.137l5.953,3.387L10.109,15.91Z" transform="translate(88.562 1211.5)" fill="#b1b1b1"/></g></svg>